<?xml version="1.0" encoding="utf-8"?>
<!-- Generator: Adobe Illustrator 23.0.4, SVG Export Plug-In . SVG Version: 6.00 Build 0)  -->
<svg version="1.1" id="Layer_1" xmlns="http://www.w3.org/2000/svg" xmlns:xlink="http://www.w3.org/1999/xlink" x="0px" y="0px"
	 viewBox="0 0 266.9 72.9" style="enable-background:new 0 0 266.9 72.9;" xml:space="preserve">
<style type="text/css">
	.st0{fill:#D33E29;}
	.st1{fill:#FFFFFF;}
	.st2{fill:#27733A;}
</style>
<g>
	<g>
		<g>
			<g>
				<path class="st0" d="M89.6,30.2c-1.4,0-2.6-0.9-3.2-2.2c-1.9-4.7-4.8-8.4-8.6-11.1c-5.1-3.7-10.5-5.6-16.1-5.6
					c-3.2,0-6.6,0.6-10,1.9l-0.2,0.1c-0.4,0.1-0.8,0.3-1.2,0.3c-0.1,0-0.3,0-0.4,0c-0.9,0-1.8-0.4-2.4-1c-0.7-0.7-1-1.6-1-2.5
					c0-0.1,0-0.4,0-0.4c0-0.1,0-0.3,0.1-0.4l0.4-1c0-0.1,0.1-0.2,0.1-0.2c0.8-1,2-1.4,3-1.7l0.4-0.1c3.7-1.3,7.4-1.9,11-1.9
					c2.6,0,5.2,0.3,7.8,1c11.1,2.8,19,9.5,23.6,20c0.4,0.9,0.4,1.9,0.1,2.8c-0.3,0.9-1,1.5-1.9,1.9C90.5,30.1,90.1,30.2,89.6,30.2z"
					/>
				<path class="st1" d="M61.4,5.2c2.5,0,5,0.3,7.6,0.9c10.8,2.7,18.5,9.2,23,19.5c0.6,1.4,0,2.9-1.3,3.5c-0.3,0.1-0.7,0.2-1,0.2
					c-1,0-1.9-0.6-2.4-1.7c-1.9-4.6-4.8-8.6-8.9-11.5c-5.3-3.8-10.8-5.8-16.6-5.8c-3.4,0-6.8,0.6-10.3,1.9c-0.4,0.1-0.8,0.3-1.2,0.3
					c-0.1,0-0.2,0-0.3,0c-1.4,0-2.6-1.2-2.5-2.6c0-0.2,0-0.3,0-0.5c0.1-0.3,0.3-0.6,0.4-1c0.8-0.9,1.9-1.2,2.9-1.6
					C54.2,5.8,57.8,5.2,61.4,5.2 M61.4,3.4L61.4,3.4c-3.7,0-7.5,0.7-11.3,1.9c-0.1,0-0.3,0.1-0.4,0.1c-1.1,0.3-2.4,0.8-3.4,2
					c-0.1,0.1-0.2,0.3-0.3,0.4l-0.2,0.4l-0.2,0.5c-0.1,0.2-0.1,0.5-0.1,0.7l0,0.2c0,0.1,0,0.2,0,0.2c0,1.2,0.4,2.3,1.3,3.2
					c0.8,0.8,1.9,1.3,3.1,1.3c0.2,0,0.3,0,0.5,0c0.6-0.1,1-0.2,1.4-0.4L52,14c3.3-1.2,6.6-1.8,9.7-1.8c5.4,0,10.6,1.8,15.6,5.4
					c3.6,2.6,6.4,6.3,8.3,10.7c0.7,1.7,2.3,2.8,4,2.8c0.6,0,1.2-0.1,1.7-0.4c1.1-0.5,1.9-1.3,2.4-2.4c0.4-1.1,0.4-2.3-0.1-3.5
					C88.9,14.2,80.8,7.2,69.4,4.4C66.8,3.7,64.1,3.4,61.4,3.4L61.4,3.4z"/>
			</g>
			<g>
				<path class="st0" d="M81,33.3c-0.2,0-0.4,0-0.7-0.1c-1.2-0.2-2.2-1-2.7-2.2c-0.6-1.5-1.4-2.8-2.4-4.1c-3.1-3.9-8.1-6.3-13.2-6.3
					c-2.1,0-4,0.4-5.9,1.1c-0.7,0.3-1.3,0.4-1.8,0.4c-0.7,0-1.3-0.2-1.9-0.6c-1.1-0.8-1.6-1.9-1.5-3.2c0.1-1.3,0.9-2.4,2.2-2.9
					c2.5-1.1,5.2-1.6,8-1.8c0.3,0,0.6,0,0.9,0c3.3,0,6.5,0.7,10.4,2.3c5.1,2.2,9.3,6.6,11.7,12.4c0.5,1.3,0.4,2.6-0.4,3.6
					C83,32.9,82.1,33.3,81,33.3z"/>
				<path class="st1" d="M62,14.6c3.1,0,6.2,0.6,10.1,2.3c4.6,2,8.8,6.1,11.2,11.9c0.4,1,0.3,1.9-0.3,2.7c-0.5,0.7-1.2,1-2,1
					c-0.2,0-0.3,0-0.5,0c-1-0.2-1.6-0.8-2-1.7c-0.6-1.6-1.5-3-2.6-4.3c-3.4-4.3-8.6-6.6-13.9-6.6c-2.1,0-4.2,0.4-6.3,1.2
					c-0.5,0.2-1,0.3-1.5,0.3c-0.5,0-0.9-0.1-1.4-0.4c-0.8-0.6-1.2-1.4-1.1-2.4c0.1-1,0.7-1.8,1.6-2.1c2.5-1,5-1.6,7.7-1.7
					C61.4,14.6,61.7,14.6,62,14.6 M62,12.8c-0.3,0-0.7,0-1,0c-2.9,0.1-5.7,0.7-8.3,1.8c-1.6,0.7-2.5,1.9-2.7,3.6
					c-0.2,1.6,0.5,3.1,1.9,4.1c0.7,0.5,1.5,0.7,2.4,0.7c0.7,0,1.4-0.1,2.2-0.5c1.8-0.7,3.7-1,5.6-1c4.9,0,9.5,2.2,12.5,6
					c1,1.2,1.7,2.5,2.3,3.9c0.6,1.5,1.8,2.5,3.4,2.8c0.3,0,0.5,0.1,0.8,0.1c1.3,0,2.5-0.6,3.4-1.7c1-1.3,1.2-2.9,0.6-4.5
					c-2.5-5.9-6.8-10.5-12.1-12.8C68.8,13.5,65.5,12.8,62,12.8L62,12.8z"/>
			</g>
			<g>
				<path class="st0" d="M71.9,37.1c-0.2,0-0.4,0-0.6,0c-0.2,0-0.4-0.1-0.5-0.1c0,0-0.1,0-0.1,0c-1.3-0.5-1.8-1.4-2.1-2.1
					c-1.1-2.6-3.6-4.2-6.4-4.2c-0.2,0-0.4,0-0.7,0c-0.6,0.1-1.3,0.3-2,0.5l-0.2,0.1c-0.4,0.1-0.8,0.2-1.2,0.2c-0.9,0-1.7-0.3-2.4-1
					c-1-0.9-1.3-2.2-0.9-3.5c0.3-1.1,1-1.8,2.1-2.2c1.8-0.7,3.6-1,5.3-1c2.3,0,4.6,0.6,6.9,1.9c2.7,1.5,4.7,3.8,6,6.7
					c0.6,1.3,0.4,2.5-0.5,3.6C73.9,36.6,72.9,37.1,71.9,37.1z"/>
				<path class="st1" d="M62.1,24.4c2.2,0,4.3,0.6,6.4,1.7c2.6,1.4,4.4,3.6,5.6,6.3c0.4,1,0.3,1.9-0.3,2.7c-0.5,0.7-1.2,1-2,1
					c-0.1,0-0.3,0-0.5,0C71.2,36.1,71,36,71,36c-0.9-0.3-1.3-0.9-1.6-1.6c-1.3-2.9-4.1-4.8-7.2-4.8c-0.3,0-0.5,0-0.8,0
					c-0.8,0.1-1.6,0.3-2.4,0.6c-0.3,0.1-0.7,0.2-1,0.2c-0.6,0-1.2-0.2-1.7-0.7c-0.8-0.7-1-1.6-0.7-2.6c0.2-0.8,0.8-1.3,1.5-1.6
					C58.8,24.8,60.5,24.4,62.1,24.4 M62.1,22.6c-1.9,0-3.8,0.4-5.6,1.1c-1.3,0.5-2.2,1.5-2.6,2.8c-0.5,1.7-0.1,3.3,1.2,4.5
					c0.8,0.8,1.9,1.2,3,1.2c0.5,0,1-0.1,1.5-0.2l0.2-0.1c0.6-0.2,1.2-0.4,1.8-0.4c0.2,0,0.4,0,0.6,0c2.4,0,4.6,1.4,5.6,3.7
					c0.4,0.8,1,1.9,2.6,2.6c0.1,0,0.1,0,0.2,0.1c0.1,0,0.4,0.1,0.7,0.2c0.2,0,0.5,0.1,0.7,0.1c1.4,0,2.5-0.6,3.4-1.7
					c1.1-1.3,1.3-2.9,0.6-4.5c-1.3-3.2-3.5-5.6-6.4-7.2C67.1,23.3,64.6,22.6,62.1,22.6L62.1,22.6z"/>
			</g>
			<g>
				<path class="st0" d="M62,46c-1.3,0-2.6-0.3-3.8-0.9c-1.9-1-3.4-2.7-4-4.8c-0.6-2.1-0.4-4.2,0.6-6.1c1.4-2.7,4.2-4.3,7.2-4.3
					c1.3,0,2.6,0.3,3.7,0.9c1.9,1,3.4,2.7,4,4.8c0.6,2.1,0.4,4.2-0.6,6.1C67.7,44.3,65,46,62,46z"/>
				<path class="st1" d="M62,30.7c1.1,0,2.2,0.3,3.3,0.8c3.6,1.9,4.9,6.2,3.1,9.7c-1.3,2.5-3.8,3.9-6.4,3.9c-1.1,0-2.3-0.3-3.3-0.8
					c-3.5-1.9-4.9-6.2-3-9.7C56.9,32.1,59.4,30.7,62,30.7 M62,28.9c-3.3,0-6.4,1.8-8,4.8c-1.1,2.1-1.4,4.5-0.7,6.8
					c0.7,2.3,2.3,4.2,4.4,5.4c1.3,0.7,2.7,1,4.2,1c3.3,0,6.4-1.9,8-4.8c1.1-2.1,1.3-4.5,0.6-6.8c-0.7-2.3-2.3-4.2-4.5-5.3
					C64.8,29.2,63.4,28.9,62,28.9L62,28.9z"/>
			</g>
			<g>
				<path class="st0" d="M58.3,67.1c-0.5,0-1,0-1.5-0.1C46.5,66.3,38,58,37.1,47.8c-0.8-9.3,4.5-18,13.1-21.5
					c0.4-0.2,0.8-0.3,1.3-0.3c1.6,0,2.9,1.1,3.3,2.6l0.1,0.3c0.4,1.6-0.5,3.2-2,3.9c-5.4,2.2-8.8,7.4-8.8,13.2
					c0,7.9,6.4,14.3,14.3,14.3l0.2,0c7.6-0.1,13.9-6.4,14.1-13.9c0-2-0.3-3.9-1-5.7c-0.7-1.6,0-3.4,1.5-4.2l0.3-0.1
					c0.5-0.3,1-0.4,1.6-0.4c1.4,0,2.6,0.8,3.1,2.1c1.1,2.6,1.6,5.3,1.6,8C79.5,57.6,70,67.1,58.3,67.1z"/>
				<path class="st1" d="M51.6,26.9c1.1,0,2.1,0.7,2.4,1.9L54,29c0.3,1.2-0.4,2.4-1.5,2.8c-5.5,2.3-9.4,7.7-9.4,14
					c0,8.4,6.8,15.2,15.2,15.2c0.1,0,0.1,0,0.2,0c8.1-0.1,14.8-6.7,15-14.8c0-2.1-0.4-4.2-1.1-6c-0.5-1.2,0-2.5,1.1-3.1l0.3-0.1
					c0.4-0.2,0.7-0.3,1.1-0.3c1,0,1.9,0.6,2.3,1.5c1,2.4,1.5,5,1.5,7.7c0,11.2-9.1,20.3-20.3,20.3c-0.5,0-1,0-1.5-0.1
					C47,65.4,38.9,57.5,38,47.7c-0.8-9.3,4.6-17.4,12.6-20.6C50.9,26.9,51.2,26.9,51.6,26.9 M51.6,25C51.6,25,51.6,25,51.6,25
					c-0.6,0-1.1,0.1-1.6,0.3c-9,3.7-14.6,12.7-13.7,22.5c0.9,10.7,9.7,19.3,20.5,20.1c0.5,0,1.1,0.1,1.6,0.1
					c12.2,0,22.1-9.9,22.1-22.1c0-2.9-0.6-5.7-1.7-8.4c-0.7-1.6-2.2-2.7-4-2.7c-0.7,0-1.4,0.2-2,0.5l-0.3,0.1
					c-1.9,1-2.8,3.3-1.9,5.4c0.7,1.7,1,3.5,1,5.3c-0.2,7.1-6.1,13-13.2,13.1l-0.2,0c-7.4,0-13.3-6-13.3-13.3
					c0-5.4,3.2-10.3,8.3-12.3c2-0.8,3-2.9,2.6-4.9l-0.1-0.3C55.2,26.4,53.5,25,51.6,25L51.6,25L51.6,25z"/>
			</g>
		</g>
	</g>
	<g>
		<g>
			<g>
				<path class="st2" d="M122.6,67.7c-1.8,0-3.3-0.9-4.4-2.6l-10.5-14.9l-1.8,1.6v9.4c0,4-2.3,6.5-6,6.5c-3.7,0-6-2.4-6-6.5V10.6
					c0-4,2.2-6.5,6-6.5c3.8,0,6,2.4,6,6.5v25.7l12.5-10.8c1-0.9,2.3-1.4,3.8-1.4c3.6,0,5.7,2.2,5.7,6c0,1.9-0.9,3.5-2.6,5l-8.8,7.6
					l10.7,15.2c0.8,1.2,1.2,2.4,1.2,3.7C128.5,65.4,126.3,67.7,122.6,67.7z"/>
				<path class="st1" d="M100,5c3.3,0,5.1,2,5.1,5.6v27.7l14-12.1c0.8-0.8,1.9-1.2,3.2-1.2c3,0,4.8,1.8,4.8,5c0,1.6-0.8,3-2.2,4.3
					l-9.4,8.1l11.2,15.9c0.7,1,1,2.1,1,3.2c0,3.3-1.8,5.2-4.9,5.2c-1.5,0-2.7-0.7-3.6-2.1l-11.1-15.7l-2.8,2.5v9.8
					c0,3.5-1.9,5.6-5.1,5.6c-3.2,0-5.1-2-5.1-5.6V10.6C94.9,7.1,96.7,5,100,5 M100,3.2c-4.3,0-6.9,2.8-6.9,7.4v50.6
					c0,4.5,2.6,7.4,6.9,7.4c4.3,0,6.9-2.8,6.9-7.4v-9l0.7-0.6l9.9,14c1.3,1.9,3.1,2.9,5.1,2.9c4.2,0,6.7-2.7,6.7-7
					c0-1.5-0.5-2.9-1.3-4.2l-10.2-14.6l8.2-7.1c1.9-1.6,2.9-3.5,2.9-5.6c0-4.2-2.5-6.9-6.6-6.9c-1.7,0-3.2,0.6-4.4,1.7l-11,9.5V10.6
					C106.9,6,104.2,3.2,100,3.2L100,3.2z"/>
			</g>
			<g>
				<path class="st2" d="M150.6,67.7c-6.3,0-11.3-2.2-15-6.7c-3.4-4-5.1-9.2-5.1-15.5c0-6.3,1.9-11.6,5.6-15.8
					c3.8-4.2,8.6-6.4,14.2-6.4c5.5,0,10.1,2.2,13.6,6.6c3.3,4.2,5,9.4,5,15.6c0,3.2-2,5.2-5.2,5.2h-20.6c0.9,3.8,3.4,5.6,7.8,5.6
					c2.7,0,5.1-1.2,7.4-3.5c1.1-1.3,2.6-2,4.1-2c3.4,0,5.4,2.2,5.4,5.8c0,1.3-0.5,2.6-1.5,3.9C162.6,65.2,157.3,67.7,150.6,67.7z
					 M156.8,39.4c-0.4-1-0.9-1.9-1.6-2.6c-1.3-1.4-2.9-2.1-4.8-2.1c-3.6,0-5.7,1.5-6.8,4.7H156.8z"/>
				<path class="st1" d="M150.3,24.3c5.2,0,9.6,2.1,12.9,6.3c0,0,0,0,0,0c3.1,4,4.7,9,4.7,15c0,2.7-1.6,4.3-4.2,4.3h-21.7
					c0.8,5,3.6,7.4,8.9,7.4c2.9,0,5.6-1.3,8-3.8c1-1.1,2.2-1.7,3.4-1.7c2.8,0,4.5,1.8,4.5,4.9c0,1.1-0.4,2.2-1.3,3.3
					c-3.5,4.5-8.6,6.8-14.9,6.8c-6,0-10.8-2.1-14.3-6.4c-3.2-3.9-4.9-8.9-4.9-14.9c0-6,1.8-11.1,5.3-15.2
					C140.4,26.3,144.9,24.3,150.3,24.3 M142.3,40.3H158c-0.4-1.6-1.2-3-2.2-4.1c-1.5-1.6-3.3-2.4-5.4-2.4
					C145.9,33.8,143.4,35.8,142.3,40.3 M150.3,22.5c-5.9,0-11,2.2-14.9,6.7c-3.8,4.4-5.8,9.9-5.8,16.4c0,6.4,1.8,11.8,5.3,16
					c3.9,4.6,9.2,7,15.7,7c7,0,12.5-2.5,16.4-7.5c1.1-1.4,1.7-2.9,1.7-4.4c0-2.4-0.8-4.3-2.3-5.4c2.1-0.9,3.4-2.9,3.4-5.6
					c0-6.4-1.7-11.8-5.1-16.1c0,0,0,0,0,0C161,24.8,156.1,22.5,150.3,22.5L150.3,22.5z M144.9,38.5c1-2,2.7-2.9,5.5-2.9
					c1.6,0,3,0.6,4.1,1.8c0.3,0.3,0.6,0.7,0.8,1.1H144.9L144.9,38.5z M144.4,51.7h13.8c-0.2,0.2-0.4,0.4-0.6,0.6
					c-2.1,2.1-4.3,3.2-6.7,3.2C147.4,55.4,145.4,54.3,144.4,51.7L144.4,51.7z"/>
			</g>
			<g>
				<path class="st2" d="M180.4,67.7c-4.4,0-7-2.6-7-7c0-4.4,2.6-7,7-7s7,2.6,7,7C187.4,65,184.8,67.7,180.4,67.7z"/>
				<path class="st1" d="M180.4,54.6c3.9,0,6.1,2.2,6.1,6.1c0,3.9-2.2,6.1-6.1,6.1c-3.9,0-6.1-2.2-6.1-6.1
					C174.3,56.8,176.5,54.6,180.4,54.6 M180.4,52.8c-4.9,0-7.9,3-7.9,7.9c0,4.9,3,7.9,7.9,7.9c4.9,0,7.9-3,7.9-7.9
					C188.3,55.8,185.3,52.8,180.4,52.8L180.4,52.8z"/>
			</g>
			<g>
				<path class="st2" d="M205.1,67.7c-2.3,0-4.1-1.3-5.1-3.6l-12.9-31.3c-0.3-0.9-0.5-1.7-0.5-2.5c0-3.8,2.1-6.1,5.6-6.1
					c2.4,0,4.3,1.4,5.3,3.7l7.6,19.2l7.6-19.2c0.9-2.4,2.9-3.7,5.3-3.7c3.5,0,5.6,2.3,5.6,6.1c0,0.8-0.2,1.6-0.5,2.5L210.2,64
					C209.3,66.3,207.4,67.7,205.1,67.7z"/>
				<path class="st1" d="M218,25c3,0,4.7,1.9,4.7,5.2c0,0.7-0.1,1.4-0.4,2.1l-12.9,31.3c-0.8,2-2.4,3-4.3,3s-3.4-1.1-4.3-3L188,32.4
					c-0.3-0.7-0.4-1.5-0.4-2.2c0-3.3,1.7-5.2,4.7-5.2c2.1,0,3.6,1.1,4.4,3.2l8.4,21.3l8.4-21.3C214.3,26.1,215.9,25,218,25
					 M218,23.2c-2.8,0-5.1,1.6-6.1,4.3l-6.7,17l-6.7-17c-1.1-2.7-3.3-4.3-6.1-4.3c-4,0-6.5,2.7-6.5,7c0,0.9,0.2,1.9,0.5,2.8
					l12.9,31.4c1.1,2.7,3.3,4.2,6,4.2s4.8-1.5,5.9-4.2L223.9,33c0.4-1,0.5-1.9,0.5-2.8C224.5,25.9,222,23.2,218,23.2L218,23.2z"/>
			</g>
			<g>
				<path class="st2" d="M258,67.7c-3.8,0-6-2.4-6-6.5V44c0-5.7-1.9-8.1-6.5-8.1c-2.2,0-3.8,0.7-5,2.2c-1.2,1.5-1.8,3.5-1.8,6v17.1
					c0,4-2.3,6.5-6,6.5c-3.8,0-6-2.4-6-6.5V30.6c0-4.1,2.2-6.5,6-6.5c2.5,0,4.4,1.1,5.3,3.1c2.5-2.3,5.7-3.4,9.6-3.4
					c5.1,0,9.3,2,12.2,5.8c2.8,3.6,4.2,8.3,4.2,14v17.6C264,65.2,261.7,67.7,258,67.7z"/>
				<path class="st1" d="M247.5,24.7c4.8,0,8.7,1.8,11.5,5.5c2.7,3.4,4,8,4,13.5v17.6c0,3.5-1.9,5.6-5.1,5.6c-3.2,0-5.1-2-5.1-5.6
					V44c0-6.2-2.3-9-7.4-9c-2.4,0-4.3,0.8-5.7,2.5c-1.4,1.7-2,3.8-2,6.5v17.1c0,3.5-1.9,5.6-5.1,5.6c-3.2,0-5.1-2-5.1-5.6V30.6
					c0-3.6,1.9-5.6,5.1-5.6c2.6,0,4.4,1.4,4.9,3.8C240.1,26.1,243.4,24.7,247.5,24.7 M247.5,22.8c-3.6,0-6.8,1-9.3,2.9
					c-1.2-1.7-3.1-2.6-5.5-2.6c-4.3,0-6.9,2.9-6.9,7.5v30.6c0,4.5,2.6,7.4,6.9,7.4c4.3,0,6.9-2.8,6.9-7.4V44.1c0-2.3,0.5-4,1.6-5.4
					c1-1.3,2.4-1.9,4.3-1.9c3.4,0,5.6,1.2,5.6,7.2v17.2c0,4.5,2.6,7.4,6.9,7.4c4.3,0,6.9-2.8,6.9-7.4V43.6c0-5.9-1.5-10.8-4.4-14.6
					C257.3,24.9,253,22.8,247.5,22.8L247.5,22.8z"/>
			</g>
			<g>
				<path class="st2" d="M11.1,67.7c-3.6,0-6.6-3.2-6.6-7.1V12c0-1.9,0.7-3.6,1.9-5C7.6,5.6,9.3,4.8,11,4.8c0.5,0,1,0.1,1.4,0.2
					c2.7,0.7,4.2,3,4.2,6.4v43.6h16.9c3.1,0,5.5,2.7,5.5,6v0.7c0,3.3-2.5,6-5.5,6H11.1z"/>
				<path class="st1" d="M11,5.7c0.4,0,0.8,0.1,1.2,0.2c2.3,0.6,3.6,2.6,3.6,5.5V56h17.8c2.6,0,4.6,2.3,4.6,5.1v0.7
					c0,2.8-2.1,5.1-4.6,5.1H11.1c-3.1,0-5.7-2.8-5.7-6.2V12c0-1.6,0.6-3.2,1.6-4.4C8.1,6.4,9.5,5.7,11,5.7 M11,3.9
					C11,3.9,11,3.9,11,3.9c-2,0-3.9,0.9-5.3,2.5C4.4,7.9,3.6,9.9,3.6,12v48.5c0,4.4,3.4,8,7.5,8h22.5c3.6,0,6.4-3.1,6.4-6.9V61
					c0-3.8-2.9-6.9-6.4-6.9h-16V11.4c0-3.8-1.8-6.5-4.9-7.3C12.1,4,11.6,3.9,11,3.9L11,3.9L11,3.9z"/>
			</g>
		</g>
	</g>
</g>
</svg>
